inDegrees=no
num_controls=7
num_derivatives=13
num_iterations=116
num_multipliers=7
num_parameters=0
num_slacks=7
num_states=26
objective=0.445082
objective_accelerations=0.058175
objective_balance=0.003717
objective_effort=0.023429
objective_height=0.354259
objective_ligament=0.005502
solver_duration=1733.772992
status=Solve_Succeeded
success=true
DataType=double
version=3
OpenSimVersion=4.5
endheader
time	/jointset/ground_pelvis/pelvis_tilt/value	/jointset/ground_pelvis/pelvis_tx/value	/jointset/ground_pelvis/pelvis_ty/value	/jointset/hip_l/hip_flexion_l/value	/jointset/hip_l/hip_adduction_l/value	/jointset/hip_l/hip_rotation_l/value	/jointset/back/lumbar_extension/value	/jointset/patellofemoral_l/patellar_flexion_l/value	/jointset/knee_l/knee_flexion_l/value	/jointset/knee_l/knee_adduction_l/value	/jointset/knee_l/knee_rotation_l/value	/jointset/ankle_l/ankle_angle_l/value	/jointset/subtalar_l/subtalar_angle_l/value	/jointset/ground_pelvis/pelvis_tilt/speed	/jointset/ground_pelvis/pelvis_tx/speed	/jointset/ground_pelvis/pelvis_ty/speed	/jointset/hip_l/hip_flexion_l/speed	/jointset/hip_l/hip_adduction_l/speed	/jointset/hip_l/hip_rotation_l/speed	/jointset/back/lumbar_extension/speed	/jointset/patellofemoral_l/patellar_flexion_l/speed	/jointset/knee_l/knee_flexion_l/speed	/jointset/knee_l/knee_adduction_l/speed	/jointset/knee_l/knee_rotation_l/speed	/jointset/ankle_l/ankle_angle_l/speed	/jointset/subtalar_l/subtalar_angle_l/speed	/forceset/tau_hip_flexion_l	/forceset/tau_hip_adduction_l	/forceset/tau_hip_rotation_l	/forceset/tau_knee_flexion_l	/forceset/tau_ankle_angle_l	/forceset/tau_subtalar_angle_l	/forceset/tau_lumbar_extension	lambda_cid13_p0	lambda_cid13_p1	lambda_cid13_p2	lambda_cid13_p3	lambda_cid13_p4	lambda_cid13_p5	lambda_cid14_p0	/jointset/ground_pelvis/pelvis_tilt/accel	/jointset/ground_pelvis/pelvis_tx/accel	/jointset/ground_pelvis/pelvis_ty/accel	/jointset/hip_l/hip_flexion_l/accel	/jointset/hip_l/hip_adduction_l/accel	/jointset/hip_l/hip_rotation_l/accel	/jointset/back/lumbar_extension/accel	/jointset/patellofemoral_l/patellar_flexion_l/accel	/jointset/knee_l/knee_flexion_l/accel	/jointset/knee_l/knee_adduction_l/accel	/jointset/knee_l/knee_rotation_l/accel	/jointset/ankle_l/ankle_angle_l/accel	/jointset/subtalar_l/subtalar_angle_l/accel	gamma_cid13_p0	gamma_cid13_p1	gamma_cid13_p2	gamma_cid13_p3	gamma_cid13_p4	gamma_cid13_p5	gamma_cid14_p0
0	-0.03968830348106262	0.06898583648475481	0.8959574106128306	0.1955287580552426	-0.3219382917564491	-0.4847632422899753	-0.1379045077516729	0.07015288079084833	0.07015288079084844	-0.1745328516711767	-0.1191609402295888	-0.06701059314715049	0.003908690480926453	0	0	0	0	0	0	0	0	0	0	0	0	0	0.1032060232667086	-0.0994996641068146	-0.02901934363883243	-0.2243081614423274	0.1744479739426609	-0.01024948651621066	-0.04963975751641832	20.49698746156496	-2.37520917395883	3.740973490025665	4.308796840544053	-514.6651687932797	-84.49188320455858	-39.95000720604259	-4.560050386254477	-1.972969382845464	-0.9956299831994773	12.84951440727894	-2.140334779208814	3.396012381812879	-2.866889480802302	10.27348926719305	10.27348926719898	0.6647708157513251	-0.8326257681867343	2.175393990134754	-1.165529383223559	-2.28500548267668e-08	1.257740312313073e-07	1.290512361000468e-07	5.156082209481448e-09	6.831943081020203e-09	-3.334525501952222e-08	-6.700881836348029e-09
0.01	-0.03990618866634559	0.06888901469578991	0.8959090894076548	0.1961501335205872	-0.3220435600109929	-0.4845928619372457	-0.1380537962415005	0.0706519984638992	0.07065199846389801	-0.1745028573851902	-0.1191964149049358	-0.06690582935673248	0.003850110604139642	-0.04339816805712759	-0.01922423711803101	-0.009630473112926294	0.1236864559339683	-0.02093816917856088	0.03392197177013746	-0.02959436215681835	0.09938303832015873	0.09938303832016115	0.006007949808333544	-0.007055962287365531	0.02093149557201056	-0.01160178108249969	0.1007108464061465	-0.1006510832407811	-0.02880232918556894	-0.2233291786305178	0.1735400775675565	-0.007717757753953375	-0.047177277086319	20.27835536058735	-3.367209735052378	3.820026798473582	3.329481845217156	-515.6492635340143	-86.28421629342529	-39.96014424989744	-4.202882183838573	-1.876131743819207	-0.9416894206151406	12.03990312229571	-2.053268157481265	3.367160187355903	-2.966209211808418	9.704638011159105	9.704638011156039	0.5702067097229038	-0.6362226648799001	2.048840616358603	-1.140408186875048	-6.525027060449325e-08	1.526067013860466e-07	2.008775826862753e-07	4.548945958644792e-08	-2.320527646037569e-07	-8.218228062808251e-08	-1.241040038697754e-08
0.02	-0.04055269196587973	0.06860415436213727	0.8957654767822942	0.1979907119324408	-0.3223547519913826	-0.4840878877442665	-0.1384911282786337	0.07213173189949404	0.07213173189949409	-0.1744125036718398	-0.1193012774443363	-0.06659238795546943	0.003678931773305456	-0.08572362285011673	-0.03760770893755048	-0.01905828403692451	0.2438405893015353	-0.04118474516918311	0.06691876804994308	-0.05760870946110903	0.1961231525095895	0.1961231525095756	0.01207188547060806	-0.0138775728094682	0.0417355221689967	-0.02251979080947443	0.09821566954559414	-0.1018025023747462	-0.02858531473227272	-0.2223501958187207	0.1726321811924469	-0.005186028991697895	-0.04471479665620523	20.1232390157685	-4.371614256751464	3.902523820137459	2.198262249743186	-515.6998385338654	-87.91249356531722	-39.98994970992344	-4.345507733426786	-1.804816323143155	-0.955097545413863	12.14304989399866	-2.002016141621098	3.210977283746509	-2.550886510296764	9.744904441047465	9.744904441049632	0.6759679865394912	-0.7857554151341637	2.149900195129868	-1.028775112118583	-1.076504863822197e-07	1.794393715407859e-07	2.727039292725037e-07	8.582283696341438e-08	-4.70937472288534e-07	-1.310193062366428e-07	-1.811991893760705e-08
0.03	-0.04161738200337605	0.06813913919748159	0.8955282586234931	0.2010165669010593	-0.3228649352034293	-0.4832576183252786	-0.1392001732486217	0.07456619324785931	0.07456619324786112	-0.1742612842540325	-0.1194735041778697	-0.06607204899316424	0.003401715909780754	-0.1270011751536349	-0.05530474880193106	-0.02837659188673848	0.3607710268701109	-0.06073643669418215	0.09900550420114991	-0.08394981593095997	0.2903183898565002	0.2903183898564969	0.01814609246195193	-0.02050929792379644	0.06223756213946967	-0.03285128141966395	0.09331123579996363	-0.09787812742739684	-0.0277310725950242	-0.2172612720522711	0.1668280555556571	-0.004745726978579598	-0.04066103649993019	18.31330334624623	-4.337545465987056	4.001737954987576	2.838550157489111	-515.5711795159672	-87.22561200718319	-40.03819372966277	-3.986909222268375	-1.738544211807942	-0.9189791819649921	11.38411469468504	-1.914474160384051	3.188044558581031	-2.638152424490535	9.189227932479996	9.189227932480026	0.5693223500018254	-0.593076666619589	1.986148075477008	-1.024579833813305	-1.368227909906435e-07	2.031968525902868e-07	3.315210301227119e-07	1.134024258347277e-07	-6.374127479461099e-07	-1.656902366629422e-07	-2.217839344314966e-08
0.04	-0.04308845361259894	0.06749987435543757	0.8951981010307537	0.2051949410466433	-0.3235671810312151	-0.4821103769892247	-0.1401651152251408	0.07792908587988975	0.07792908587989139	-0.1740500877073961	-0.1197102872839496	-0.06534953119566013	0.003023336380485321	-0.1669999371953143	-0.07245764441521188	-0.03764617082456635	0.4743444246946056	-0.07959726831697102	0.1303131514632873	-0.1087881107672616	0.3818094092420958	0.3818094092420842	0.02406731123609573	-0.02678884731962242	0.08217128920878264	-0.04275252396362001	0.08840680205434188	-0.09395375248004546	-0.02687683045779802	-0.2121723482858118	0.161023929918871	-0.004305424965456996	-0.03660727634365167	16.5614282860226	-4.313185326667221	4.101978225336354	3.336234442622401	-514.5934122340423	-86.38324751857343	-40.10335693384946	-4.089749681059023	-1.695987472923206	-0.945351763016644	11.47164194518249	-1.863844161179067	3.055159505932627	-2.250324183586895	9.204060848784442	9.204060848782836	0.6453703430994691	-0.7153202714337105	2.036237614897866	-0.9427254988718992	-1.657223551625868e-07	2.26890927678855e-07	3.900698991020742e-07	1.407190499945843e-07	-8.023950456237434e-07	-2.00069082652494e-07	-2.620282580343275e-08
0.05	-0.04495394941682156	0.06669190062418577	0.8947752097613273	0.2104936891051227	-0.3244545093430052	-0.4806542524174522	-0.1413702900552201	0.08219433010512844	0.08219433010512779	-0.1737801074975914	-0.1200087109558887	-0.06443002320331238	0.002548432555632798	-0.2058892536747278	-0.08903264634345515	-0.04694069835581621	0.5848440649582487	-0.0977412625174801	0.1607741776260017	-0.1320144814995371	0.4707906194828045	0.4707906194826872	0.02990546841694452	-0.03284216766611978	0.1016498245261503	-0.0521369774334027	0.08370586887648993	-0.09099004028159809	-0.02615687809163864	-0.2086976911481582	0.1569808496697777	-0.003531005396122088	-0.03275107178770931	15.38048966662183	-4.493822663463868	4.18912299626292	3.414771910061237	-513.7200263167221	-85.92148254002751	-40.18351699659384	-3.757039298097469	-1.622559864471932	-0.9229573546440061	10.75493155946629	-1.770668645866252	3.020884140773606	-2.323937455688369	8.677833936375267	8.67783393636037	0.5496311075470813	-0.5422304897790615	1.891585258996886	-0.9226950343802993	-1.83375962550346e-07	2.282293933469473e-07	4.248502412495653e-07	1.578989731317934e-07	-9.080133243778756e-07	-2.232582807323734e-07	-2.918465929836242e-08
0.06	-0.04720204171918169	0.06572131621131212	0.8942590823952954	0.2168805948647415	-0.3255194759160764	-0.4788976555901865	-0.1428007573801502	0.08733592299770633	0.08733592299770294	-0.1734524271755848	-0.1203660463459973	-0.06331814510402278	0.001982406243412678	-0.2435192368227374	-0.1049797807395812	-0.05629339014567774	0.6919759649223345	-0.115124920573166	0.1904076025620266	-0.1538466097374322	0.5570791427099601	0.5570791427097436	0.03560733367657325	-0.03857119095346961	0.1206453105971447	-0.0609770214371391	0.07900493569864843	-0.08802632808315004	-0.02543692572547628	-0.2052230340105025	0.1529377694206851	-0.002756585826786114	-0.02889486723175846	14.25136566365762	-4.682783261538197	4.276739511212223	3.36461619818567	-512.0873797353513	-85.31835013366374	-40.27652851920214	-3.837883014778244	-1.570413966499766	-0.9569846147389823	10.79809388527107	-1.711776932214429	2.889639260594739	-1.971475684710833	8.665523446073792	8.665523446073532	0.6181119588554521	-0.6504608596042033	1.939627765623211	-0.833843605662642	-2.005560559682447e-07	2.286265701973354e-07	4.586298033199248e-07	1.746520878048909e-07	-1.011132065493123e-06	-2.459763357423718e-07	-3.212259389369826e-08
0.07000000000000001	-0.04982098278321768	0.06459433579341749	0.893648880291559	0.2243236398852142	-0.3267545154871983	-0.4768491086119331	-0.1444417885253788	0.09332801375682501	0.09332801375682445	-0.1730682087660672	-0.1207796896415219	-0.06201840311360037	0.001330829196392222	-0.2800581856789445	-0.1203138078809687	-0.06577008857317035	0.7960805900491945	-0.1317518631232246	0.2191693773866714	-0.1741356441722052	0.6408887065981085	0.6408887065979157	0.04120309776830201	-0.04409858306832435	0.1392143255044753	-0.06924843602436118	0.07389694568522498	-0.08521480653051428	-0.02465899739417959	-0.2018932013714086	0.1485862118061155	-0.001587157350287216	-0.02479746682483392	13.02342955893542	-5.016309428819839	4.376340165121876	3.451595479514511	-510.6192507334881	-85.01361398370304	-40.37997391626173	-3.530292891091658	-1.499487710720242	-0.9466746288269513	10.13375242836011	-1.618548694969757	2.849521300244813	-2.024021052449514	8.171133942953313	8.17113394295697	0.5254105140031972	-0.4949845948070619	1.802218908894211	-0.810384433776357	-2.081082618993394e-07	2.125390654175002e-07	4.761984602584575e-07	1.815357702916234e-07	-1.058294949413447e-06	-2.595020249606238e-07	-3.46522239074097e-08
0.08	-0.05279899174982572	0.06331709697955656	0.8929431787691331	0.2327911522773493	-0.3281519036395346	-0.4745169289440647	-0.1462789907608729	0.1001446923713797	0.1001446923713821	-0.1726290123396985	-0.1212468280996697	-0.0605356348629834	0.000599219193794675	-0.3153328173371409	-0.13503145993284	-0.07539327388357274	0.8968694392547193	-0.1475946368160105	0.2471341404851351	-0.1930808277905373	0.7219967137969747	0.7219967137968051	0.04660293704689528	-0.04927022347841736	0.1572505626360553	-0.07698361255255785	0.06878895567180951	-0.08240328497787723	-0.02388106906288918	-0.1985633687323088	0.1442346541915484	-0.0004177288737854923	-0.02070006641790524	11.84085314800294	-5.356597453991073	4.475670974808204	3.425466604780448	-508.4827105362348	-84.58349256667516	-40.49128209341379	-3.585019575176113	-1.447138948596537	-0.9862819913209374	10.13493870100405	-1.554943160759888	2.730236915358532	-1.702705521422662	8.125212108217356	8.125212108216967	0.5789269962283518	-0.5793105186518572	1.833072210473095	-0.726595993857569	-2.150393137990273e-07	1.953880327905539e-07	4.927212523497754e-07	1.877827152179453e-07	-1.101847778030873e-06	-2.724346583213437e-07	-3.71555116900486e-08
0.09	-0.05612427930533262	0.06189573627173395	0.8921402996409452	0.2422516327635855	-0.3297038461341052	-0.4719094059048385	-0.1482981449646136	0.1077601115003087	0.1077601115003087	-0.1721365212502926	-0.121764648692937	-0.05887474831730228	-0.0002068879756662684	-0.3495120325325891	-0.1491363191820301	-0.0852155628550048	0.9946788644804203	-0.162658254119313	0.2742377854930436	-0.2105369808861065	0.8006400755162408	0.8006400755162055	0.05186050833581418	-0.05423671746823053	0.1748376860273345	-0.08414396698035366	0.06346292356037084	-0.0793922992627749	-0.02310479163560874	-0.1956816888725691	0.1402939890551453	0.0006463656620526002	-0.01647940795864038	10.76721070638829	-5.667386359439422	4.567070412138792	3.40457751207219	-506.6041104998293	-84.05178703157218	-40.60771673017221	-3.302481568181936	-1.376467388134294	-0.9853750886435775	9.521749270540141	-1.461792531277096	2.680456354105245	-1.73511539290109	7.666850204455116	7.666850204475527	0.4940432604376485	-0.4466729534925643	1.708167106960266	-0.696762096843158	-2.136589617270728e-07	1.605605264082897e-07	4.927105235399639e-07	1.850590731848345e-07	-1.101757004145104e-06	-2.77196841628563e-07	-3.944098643936583e-08
